<?xml version="1.0" encoding="UTF-8"?>
<!DOCTYPE svg PUBLIC "-//W3C//DTD SVG 1.1//EN" "http://www.w3.org/Graphics/SVG/1.1/DTD/svg11.dtd">
<!-- Creator: CorelDRAW 2019 (64-Bit) -->
<svg xmlns="http://www.w3.org/2000/svg" xml:space="preserve" width="127mm" height="127mm" version="1.1" style="shape-rendering:geometricPrecision; text-rendering:geometricPrecision; image-rendering:optimizeQuality; fill-rule:evenodd; clip-rule:evenodd"
viewBox="0 0 12700 12700"
 xmlns:xlink="http://www.w3.org/1999/xlink"
 xmlns:xodm="http://www.corel.com/coreldraw/odm/2003"
 data-name="Layer 1">
 <defs>
  <style type="text/css">
   <![CDATA[
    .fil2 {fill:#5DA576;fill-rule:nonzero}
    .fil1 {fill:#313030;fill-rule:nonzero}
    .fil0 {fill:#313030;fill-rule:nonzero}
    .fil3 {fill:#3B7FC0;fill-rule:nonzero}
   ]]>
  </style>
 </defs>
 <g id="Layer_x0020_1">
  <metadata id="CorelCorpID_0Corel-Layer"/>
  <g id="_1647778824048">
   <path class="fil0" d="M2540 9149.74c1.09,-21.15 6.96,-41.73 11.33,-62.5 56.38,-268.4 127.64,-533.03 202.71,-796.66 206.78,-726.14 438.42,-1444.36 690.33,-2156.06 81.65,-230.65 165.58,-460.5 261.56,-685.7 70.8,-166.13 155.35,-325.49 241.44,-484.01 139.66,-257.14 292.92,-505.82 466.19,-741.85 150.58,-205.11 317.84,-395.77 500.1,-573.23 115.05,-112.02 244.81,-205.42 378.2,-293.81 172.61,-114.38 355.8,-207.93 552.31,-274.39 136.65,-46.22 276.26,-79.36 419.39,-98.61 151.88,-20.43 304.27,-25.6 457.13,-19.61 161.1,6.31 318.72,34.54 473.61,78.71 97,27.66 194.35,54.18 287.39,94.03 352.52,150.97 663.08,361.68 923.42,644.94 187.51,204.02 365.68,415.47 523.01,643.94 97.66,141.82 181.65,291.71 262.68,443.41 132.95,248.89 253.04,503.94 366.86,762.03 1.98,4.48 3.55,9.14 5.77,14.9 -6.17,2.96 -11.84,1.95 -17.18,1.95 -144.16,0.07 -288.32,0.1 -432.48,-0.01 -18.93,-0.02 -17.03,4.1 -24.96,-18.46 -124.57,-354.39 -287.96,-690.69 -476.54,-1014.89 -167.92,-288.71 -367.3,-554.59 -597.74,-796.25 -240.77,-252.48 -527.58,-434.42 -859.72,-542.67 -114.51,-37.32 -232.49,-60.89 -352,-76.81 -118.45,-15.78 -237.19,-19.13 -356.26,-10.84 -200.58,13.96 -392.39,63.31 -575.92,145.04 -236.75,105.42 -453.44,241.95 -644.65,417.69 -110.24,101.32 -206.69,214.85 -295.14,335.35 -99.22,135.18 -199.14,269.85 -286.61,413.24 -132.62,217.39 -245.62,444.77 -348.18,677.56 -105.61,239.73 -198.45,484.58 -292.78,728.86 -120.52,312.12 -217.53,631.67 -305.17,954.24 -94.58,348.13 -178.35,698.91 -255.09,1051.4 -40.51,186.06 -77.85,372.77 -115.65,559.38 -34.81,171.89 -70.32,343.64 -105.52,515.46 -10.49,51.19 -21.29,102.32 -31.12,153.65 -1.91,9.97 -5.68,13.78 -15.33,12.64 -2.83,-0.34 -5.73,-0.06 -8.6,-0.06 -202.26,0 -404.52,0.02 -606.78,-0.06 -6.33,-0.01 -12.88,1.4 -20.01,-1.94z"/>
   <path class="fil1" d="M5370.05 5731l289.88 2088.48 -518.3 0 -25.14 -375.16 -182.32 0 -30.03 375.16 -524.59 0 257.76 -2088.48 732.74 0zm-268.23 1342.65c-25.85,-235.88 -51,-527.92 -76.84,-875.38 -51.69,399.13 -83.82,690.42 -96.39,875.38l173.23 0zm644.72 -1342.65l358.34 0c238.89,0 400.95,9.74 485.47,29.21 84.52,20.21 153.67,70.39 207.46,152.01 53.08,81.62 79.63,211.17 79.63,389.39 0,162.49 -18.86,271.08 -56.58,327.24 -37.72,56.16 -111.76,89.11 -222.83,100.34 100.59,26.96 168.34,62.9 202.57,107.08 34.23,44.93 55.88,86.12 64.26,123.56 8.39,37.44 12.58,140.03 12.58,308.52l0 551.13 -470.8 0 0 -694.16c0,-111.58 -8.38,-181.22 -24.45,-207.43 -16.06,-26.2 -59.37,-39.68 -129.22,-39.68l0 941.27 -506.43 0 0 -2088.48zm506.43 357.19l0 464.28c56.58,0 96.39,-8.24 119.44,-25.46 23.05,-16.48 34.23,-70.39 34.23,-162.5l0 -114.57c0,-66.65 -11.18,-110.08 -32.83,-131.04 -21.65,-20.22 -62.17,-30.71 -120.84,-30.71zm2003.33 553.39l-506.42 0 0 -363.18c0,-105.59 -5.59,-172.24 -16.06,-198.44 -11.18,-26.21 -34.93,-38.94 -71.95,-38.94 -41.91,0 -68.45,15.72 -79.63,47.17 -11.18,32.2 -16.77,101.1 -16.77,206.68l0 969.73c0,101.84 5.59,168.49 16.77,199.19 11.18,30.7 36.32,46.43 76.14,46.43 37.72,0 62.16,-15.73 74.04,-46.43 11.87,-30.7 17.46,-104.09 17.46,-218.66l0 -261.34 506.42 0 0 80.87c0,216.42 -13.97,369.18 -42.61,459.04 -28.63,90.6 -91.5,169.23 -188.59,237.37 -97.8,68.15 -217.94,102.59 -361.14,102.59 -148.08,0 -270.32,-29.2 -366.71,-86.86 -96.4,-57.66 -159.96,-137.04 -191.4,-238.88 -31.43,-101.84 -46.8,-255.35 -46.8,-459.78l0 -610.29c0,-150.52 4.89,-263.59 14.67,-339.22 9.08,-74.88 37.72,-147.52 85.92,-217.16 47.5,-69.64 113.86,-124.31 198.38,-163.99 84.52,-39.69 182.31,-59.91 291.97,-59.91 148.79,0 272.43,30.7 369.52,92.85 97.09,62.16 160.66,139.29 191.39,231.39 30.04,92.11 45.4,235.88 45.4,431.33l0 198.44zm1346.04 -910.58l0 2088.48 -506.42 0 0 -876.87 -151.58 0 0 876.87 -506.42 0 0 -2088.48 506.42 0 0 747.33 151.58 0 0 -747.33 506.42 0z"/>
   <path class="fil2" d="M9831.29 7584.71l0 86.62 -28.43 0c-13.38,0 -21.8,1.16 -25.52,3.35 -3.59,2.19 -5.38,5.92 -5.38,11.07 0,5.66 2.48,9.91 7.31,12.74 4.83,2.96 12.28,4.37 22.35,4.37 12.83,0 22.49,-1.67 28.98,-4.89 6.48,-3.09 14.35,-11.84 23.59,-26.38 26.35,-41.57 48.15,-67.7 65.13,-78.51 16.97,-10.68 44.28,-16.09 81.95,-16.09 27.46,0 47.61,2.96 60.57,8.88 12.97,6.05 23.87,17.63 32.7,34.75 8.84,17.12 13.25,37.07 13.25,59.85 0,24.97 -5.11,46.33 -15.32,63.97 -10.07,17.63 -23.04,29.21 -38.77,34.62 -15.59,5.53 -37.8,8.24 -66.64,8.24l-25.25 0 0 -86.62 46.78 0c14.48,0 23.73,-1.29 27.87,-3.74 4.14,-2.44 6.21,-6.69 6.21,-12.99 0,-6.18 -2.63,-10.82 -7.87,-13.78 -5.24,-2.96 -12.97,-4.5 -23.32,-4.5 -22.62,0 -37.39,2.83 -44.43,8.62 -7.03,5.92 -18.62,20.47 -34.9,43.63 -16.56,23.17 -28.56,38.49 -36.01,46.08 -7.32,7.59 -17.67,13.77 -30.77,18.79 -13.11,5.02 -29.94,7.47 -50.5,7.47 -29.39,0 -50.92,-3.48 -64.58,-10.56 -13.66,-7.08 -24.28,-18.4 -32.01,-34.1 -7.58,-15.58 -11.45,-34.5 -11.45,-56.76 0,-24.2 4.14,-44.79 12.56,-61.91 8.41,-17.12 18.9,-28.45 31.73,-33.98 12.83,-5.53 34.5,-8.24 64.99,-8.24l15.18 0zm-116.46 -130.38l384.82 0 0 93.32 -384.82 0 0 -93.32zm0 -245.82l384.82 0 0 81.85 -174.95 48.53 174.95 0 0 77.99 -384.82 0 0 -77.99 173.3 -52.39 -173.3 0 0 -77.99zm167.78 -255.36l0 93.32 -66.91 0c-19.46,0 -31.74,1.03 -36.57,2.96 -4.83,2.06 -7.17,6.43 -7.17,13.25 0,7.72 2.89,12.62 8.69,14.68 5.93,2.05 18.63,3.08 38.08,3.08l178.68 0c18.76,0 31.04,-1.03 36.7,-3.08 5.66,-2.06 8.56,-6.7 8.56,-14.03 0,-6.95 -2.9,-11.46 -8.56,-13.65 -5.66,-2.18 -19.18,-3.21 -40.29,-3.21l-48.15 0 0 -93.32 14.9 0c39.88,0 68.02,2.58 84.58,7.86 16.69,5.27 31.18,16.86 43.74,34.75 12.55,18.01 18.9,40.15 18.9,66.54 0,27.28 -5.38,49.8 -16,67.57 -10.63,17.76 -25.25,29.47 -44.02,35.26 -18.76,5.79 -47.05,8.63 -84.72,8.63l-112.45 0c-27.73,0 -48.56,-0.91 -62.5,-2.71 -13.8,-1.67 -27.18,-6.95 -40.01,-15.83 -12.84,-8.75 -22.91,-20.98 -30.22,-36.55 -7.31,-15.57 -11.04,-33.59 -11.04,-53.8 0,-27.41 5.66,-50.2 17.11,-68.09 11.45,-17.88 25.66,-29.6 42.63,-35.26 16.98,-5.53 43.47,-8.37 79.48,-8.37l36.56 0zm-167.78 -33.46l0 -155.6 77 0 0 62.29 72.98 0 0 -58.3 73.27 0 0 58.3 84.58 0 0 -68.47 76.99 0 0 161.78 -384.82 0zm0 -404.14l384.82 0 0 89.58 -206.27 0c-29.81,0 -47.74,0.65 -53.82,1.93 -5.93,1.42 -10.48,5.02 -13.65,10.94 -3.04,6.05 -4.56,19.31 -4.56,40.03l0 8.88 -44.98 0c-9.93,-43.24 -30.49,-76.06 -61.54,-98.59l0 -52.77zm282.58 -34.87l0 -89.58c17.94,0 29.25,-0.26 33.94,-0.65 4.69,-0.38 8.56,-2.19 11.73,-5.4 3.17,-3.22 4.69,-7.47 4.69,-13 0,-4.51 -1.52,-8.37 -4.55,-11.33 -2.9,-2.96 -6.76,-4.63 -11.59,-5.02 -4.69,-0.38 -14.21,-0.51 -28.7,-0.51l-61.26 0c10.21,4.5 17.93,11.07 23.04,19.95 5.1,8.88 7.73,19.82 7.73,33.07 0,16.35 -4.69,30.89 -14.22,43.38 -9.52,12.61 -20.83,20.59 -34.21,23.94 -13.39,3.47 -31.32,5.15 -53.95,5.15l-30.63 0c-26.91,0 -47.05,-1.03 -60.16,-3.09 -13.11,-1.93 -25.39,-7.08 -36.56,-15.32 -11.18,-8.24 -19.73,-19.69 -25.94,-34.36 -6.21,-14.68 -9.25,-31.67 -9.25,-50.97 0,-23.94 3.59,-43.63 10.63,-59.08 7.17,-15.31 17.38,-27.28 30.76,-35.65 13.39,-8.36 27.46,-13.25 42.23,-14.67 14.76,-1.29 43.18,-1.93 85.54,-1.93l53.53 0c45.81,0 76.44,0.64 91.9,1.8 15.45,1.16 30.08,6.31 43.74,15.44 13.79,9.14 24.14,21.37 31.04,36.82 6.9,15.57 10.35,33.46 10.35,53.92 0,25.36 -4.42,45.95 -13.11,61.91 -8.69,16.09 -20.97,27.54 -36.84,34.62 -15.87,7.08 -35.74,10.56 -59.88,10.56zm-120.04 -89.58c16.14,0 26.22,-1.93 29.94,-5.92 3.86,-3.86 5.8,-7.85 5.8,-11.97 0,-6.31 -2.49,-10.81 -7.32,-13.77 -4.83,-2.84 -14.21,-4.25 -28.42,-4.25l-69.54 0c-16.97,0 -28.15,1.41 -33.39,4.12 -5.1,2.7 -7.73,7.33 -7.73,13.64 0,3.86 2.07,7.85 6.07,11.97 4.01,4.12 14.91,6.18 32.57,6.18l72.02 0zm-60.29 -371.32l0 89.58c-17.94,0 -29.26,0.13 -33.95,0.51 -4.55,0.39 -8.55,2.19 -11.73,5.41 -3.17,3.22 -4.69,7.46 -4.69,12.87 0,4.63 1.52,8.37 4.42,11.33 3.03,2.96 6.9,4.76 11.73,5.14 4.83,0.39 14.35,0.65 28.7,0.65l61.4 0c-10.35,-4.51 -18.08,-11.33 -23.18,-20.21 -5.11,-8.88 -7.73,-19.82 -7.73,-32.82 0,-16.34 4.69,-30.89 14.21,-43.5 9.52,-12.49 20.83,-20.47 34.22,-23.94 13.38,-3.35 31.32,-5.02 53.95,-5.02l30.63 0c26.9,0 47.05,0.9 60.16,2.83 13.1,1.93 25.25,7.08 36.42,15.45 11.18,8.36 19.87,19.82 26.08,34.36 6.21,14.55 9.24,31.53 9.24,50.97 0,24.07 -3.58,43.76 -10.76,59.07 -7.04,15.45 -17.38,27.29 -30.77,35.66 -13.38,8.36 -27.32,13.12 -42.08,14.54 -14.76,1.42 -43.33,2.19 -85.82,2.19l-53.26 0c-45.67,0 -76.3,-0.65 -91.75,-1.93 -15.46,-1.16 -30.08,-6.31 -43.88,-15.32 -13.8,-9.01 -24.15,-21.36 -31.05,-36.94 -6.89,-15.57 -10.34,-33.59 -10.34,-54.05 0,-25.1 4.41,-45.69 13.1,-61.78 8.7,-16.09 20.98,-27.67 36.84,-34.63 15.87,-6.94 35.74,-10.42 59.89,-10.42zm120.03 89.58c-13.66,0 -23.04,1.41 -28.14,4.12 -5.11,2.83 -7.59,7.46 -7.59,13.9 0,6.18 2.34,10.68 7.17,13.51 4.83,2.96 14.35,4.38 28.56,4.38l69.54 0c16.98,0 28.15,-1.42 33.26,-4.12 5.24,-2.7 7.86,-7.34 7.86,-13.64 0,-3.86 -2.07,-7.85 -6.07,-11.97 -4,-4.12 -14.76,-6.18 -32.56,-6.18l-72.03 0zm-55.6 -291.26c5.66,-13.13 14.21,-23.3 25.52,-30.38 11.32,-7.08 38.22,-10.68 80.86,-10.68 31.04,0 53.95,2.83 68.71,8.37 14.76,5.66 26.77,16.6 36.15,32.82 9.52,16.34 14.21,38.09 14.21,65.51 0,26.64 -4.55,47.62 -13.52,63.19 -8.97,15.58 -20.97,26.64 -35.87,33.34 -14.9,6.69 -39.74,10.04 -74.37,10.04 -23.32,0 -43.46,-1.68 -60.57,-5.02 -17.11,-3.22 -30.77,-13.65 -41.12,-31.28 -5.66,11.07 -14.76,19.31 -27.32,24.84 -12.42,5.54 -28.15,8.37 -47.33,8.37 -33.11,0 -57.95,-8.63 -74.5,-25.74 -16.56,-17.12 -24.84,-42.73 -24.84,-76.84 0,-39.51 8.83,-66.8 26.36,-81.86 17.52,-15.06 42.63,-22.65 75.33,-22.65 20.83,0 35.74,2.45 44.98,7.47 9.25,5.01 18.35,15.18 27.32,30.5zm-82.79 50.32c-12.97,0 -21.52,1.03 -25.8,3.22 -4.14,2.19 -6.21,6.18 -6.21,12.23 0,5.92 2.21,9.91 6.76,11.97 4.56,2.18 12.97,3.21 25.25,3.21l29.25 0c11.59,0 19.6,-1.15 24.01,-3.6 4.42,-2.32 6.63,-6.31 6.63,-11.97 0,-5.92 -2.21,-9.91 -6.49,-11.97 -4.28,-2.06 -13.38,-3.09 -27.04,-3.09l-26.36 0zm160.06 -1.8c-14.77,0 -24.7,1.42 -29.53,4.25 -4.83,2.83 -7.18,7.2 -7.18,13.25 0,5.92 2.35,10.17 7.04,12.75 4.69,2.57 14.63,3.86 29.67,3.86l49.81 0c16.69,0 27.32,-1.42 32.01,-4.38 4.83,-2.83 7.17,-7.33 7.17,-13.51 0,-6.31 -2.48,-10.69 -7.31,-12.87 -4.83,-2.19 -15.59,-3.35 -32.56,-3.35l-49.12 0z"/>
   <path class="fil3" d="M3646.65 7856.31l558.72 0 0 255.01 -223.67 0 0 241.76 209.35 0 0 242.67 -209.35 0 0 280.15 245.85 0 0 255.02 -580.9 0 0 -1274.61zm994.98 229.87l-5.55 95.98c23.57,-37.94 51.76,-66.73 85.5,-85.92 33.73,-19.2 72.55,-28.79 116.45,-28.79 55.46,0 100.75,12.79 135.87,38.39 34.66,26.04 57.31,58.49 67.47,97.34 9.71,38.85 14.79,104.2 14.79,195.6l0 732.14 -321.18 0 0 -723.46c0,-71.75 -2.31,-115.62 -6.93,-131.62 -5.09,-15.53 -18.49,-23.3 -40.21,-23.3 -22.64,0 -36.97,9.14 -42.98,26.96 -6.01,17.82 -8.78,66.27 -8.78,145.33l0 706.09 -321.65 0 0 -1044.74 327.2 0zm1256.08 0l0 804.8c0,108.32 -2.31,178.7 -7.39,210.23 -5.08,31.99 -22.64,65.81 -53.61,101 -30.96,35.19 -73.48,62.15 -128.47,80.89 -55,18.74 -124.32,27.88 -207.5,27.88 -102.6,0 -184.86,-16.91 -246.78,-51.19 -62.39,-34.27 -94.28,-101.91 -96.59,-202.91l312.41 0c0,46.16 17.09,69.47 50.83,69.47 24.49,0 40.67,-7.32 48.52,-21.48 7.86,-14.17 12.02,-43.42 12.02,-88.66l0 -79.07c-27.73,24.68 -56.84,43.42 -87.34,55.76 -30.51,12.79 -62.39,19.19 -95.67,19.19 -57.76,0 -105.36,-11.42 -142.8,-34.73 -37.43,-23.31 -63.31,-53.47 -77.17,-90.95 -13.87,-37.47 -20.8,-90.94 -20.8,-159.95l0 -379.78c0,-99.17 18.02,-170.47 54.53,-213.88 36.05,-43.42 91.04,-65.35 164.52,-65.35 40.21,0 77.18,8.22 110.45,24.22 32.82,16.45 62.39,40.67 88.74,73.12l23.1 -78.61 299 0zm-322.1 277.41c0,-47.99 -2.78,-78.15 -8.32,-91.4 -5.55,-13.26 -18.03,-19.65 -36.98,-19.65 -18.94,0 -31.88,7.31 -39.74,22.39 -7.85,15.08 -11.55,44.33 -11.55,88.66l0 350.99c0,46.61 2.77,76.78 8.78,90.49 6.01,14.16 18.02,21.02 36.51,21.02 21.26,0 35.12,-8.23 41.59,-25.14 6.47,-16.91 9.71,-54.84 9.71,-114.25l0 -323.11zm758.36 -277.41l-12.94 137.11c46.68,-98.26 114.61,-149.9 203.34,-155.84l0 367.43c-59.15,0 -102.59,7.77 -129.86,23.77 -27.73,16 -44.83,37.93 -50.83,65.81 -6.47,27.88 -9.71,92.77 -9.71,193.77l0 412.69 -321.65 0 0 -1044.74 321.65 0zm549.48 404.92l-301.77 0 0 -70.38c0,-80.89 9.24,-143.05 28.19,-186.92 18.94,-43.87 56.84,-82.72 113.68,-116.08 56.84,-33.36 130.32,-50.27 220.9,-50.27 109.07,0 191.33,19.19 246.32,57.12 55,37.93 88.27,84.55 99.36,139.85 11.09,55.3 16.64,169.55 16.64,342.3l0 524.2 -312.87 0 0 -92.78c-19.41,37.02 -44.83,64.9 -75.79,83.64 -30.96,18.73 -68.4,27.87 -111.37,27.87 -55.92,0 -107.68,-15.54 -154.36,-47.07 -47.14,-31.08 -70.7,-99.17 -70.7,-204.74l0 -85.92c0,-78.15 12.47,-131.16 37.43,-159.5 24.95,-28.33 86.88,-61.24 185.32,-99.17 105.83,-41.13 162.21,-69.01 169.6,-83.18 7.39,-14.16 11.09,-42.95 11.09,-86.37 0,-54.39 -4.16,-90.03 -12.01,-106.49 -8.32,-16.45 -22.19,-24.67 -41.14,-24.67 -21.71,0 -35.58,6.85 -40.66,20.56 -5.09,14.17 -7.86,50.27 -7.86,108.31l0 109.69zm101.67 143.04c-51.3,37.02 -81.34,68.56 -89.19,93.69 -8.32,25.14 -12.48,61.7 -12.48,108.77 0,53.93 3.7,88.66 10.63,104.66 6.93,15.99 21.26,23.76 42.52,23.76 20.33,0 33.73,-6.4 39.74,-18.74 6.01,-12.34 8.78,-44.78 8.78,-97.34l0 -214.8zm1097.11 -547.96l-150.19 1044.74 -419.62 0 -161.75 -1044.74 287.45 0 90.12 762.3c6.93,-55.75 18.48,-192.4 35.12,-409.48 9.7,-121.11 20.33,-239.02 31.89,-352.82l286.98 0zm379.42 -229.87l0 166.35 -331.36 0 0 -166.35 331.36 0zm0 229.87l0 1044.74 -331.36 0 0 -1044.74 331.36 0zm442.26 0l-5.54 95.98c23.56,-37.94 51.75,-66.73 85.49,-85.92 33.74,-19.2 72.56,-28.79 116.46,-28.79 55.46,0 100.74,12.79 135.87,38.39 34.66,26.04 57.3,58.49 67.47,97.34 9.7,38.85 14.79,104.2 14.79,195.6l0 732.14 -321.19 0 0 -723.46c0,-71.75 -2.31,-115.62 -6.93,-131.62 -5.08,-15.53 -18.49,-23.3 -40.21,-23.3 -22.64,0 -36.97,9.14 -42.97,26.96 -6.01,17.82 -8.78,66.27 -8.78,145.33l0 706.09 -321.65 0 0 -1044.74 327.19 0zm1256.09 0l0 804.8c0,108.32 -2.31,178.7 -7.4,210.23 -5.08,31.99 -22.64,65.81 -53.6,101 -30.97,35.19 -73.48,62.15 -128.48,80.89 -54.99,18.74 -124.31,27.88 -207.5,27.88 -102.59,0 -184.85,-16.91 -246.78,-51.19 -62.39,-34.27 -94.27,-101.91 -96.58,-202.91l312.4 0c0,46.16 17.1,69.47 50.84,69.47 24.49,0 40.66,-7.32 48.52,-21.48 7.86,-14.17 12.02,-43.42 12.02,-88.66l0 -79.07c-27.73,24.68 -56.85,43.42 -87.35,55.76 -30.5,12.79 -62.39,19.19 -95.66,19.19 -57.77,0 -105.37,-11.42 -142.8,-34.73 -37.43,-23.31 -63.31,-53.47 -77.18,-90.95 -13.86,-37.47 -20.79,-90.94 -20.79,-159.95l0 -379.78c0,-99.17 18.02,-170.47 54.53,-213.88 36.04,-43.42 91.04,-65.35 164.52,-65.35 40.2,0 77.18,8.22 110.45,24.22 32.81,16.45 62.39,40.67 88.73,73.12l23.11 -78.61 299 0zm-322.11 277.41c0,-47.99 -2.77,-78.15 -8.32,-91.4 -5.54,-13.26 -18.02,-19.65 -36.97,-19.65 -18.95,0 -31.89,7.31 -39.74,22.39 -7.86,15.08 -11.56,44.33 -11.56,88.66l0 350.99c0,46.61 2.78,76.78 8.78,90.49 6.01,14.16 18.03,21.02 36.51,21.02 21.26,0 35.12,-8.23 41.59,-25.14 6.47,-16.91 9.71,-54.84 9.71,-114.25l0 -323.11z"/>
   <path class="fil0" d="M8426.41 9440.91l-139.26 0 0 -53.56c0,-18.73 -1.49,-31.36 -4.68,-38.08 -3.18,-6.72 -9.12,-9.98 -17.61,-9.98 -8.5,0 -14.23,2.85 -17.2,8.76 -2.97,5.9 -4.46,18.94 -4.46,39.3l0 219.52c0,16.49 2.12,28.92 6.58,37.27 4.46,8.35 10.83,12.62 19.53,12.62 9.98,0 16.56,-4.27 20.17,-13.03 3.61,-8.76 5.31,-25.05 5.31,-49.08l0 -55.59 131.62 0c-0.21,37.27 -1.49,65.16 -4.03,83.69 -2.76,18.53 -10.83,37.68 -24.63,57.23 -13.8,19.55 -31.63,34.21 -53.92,44.19 -22.29,9.97 -49.68,14.86 -82.37,14.86 -41.61,0 -74.52,-6.92 -98.93,-20.57 -24.41,-13.64 -41.82,-32.78 -51.8,-57.42 -10.19,-24.64 -15.28,-59.67 -15.28,-105.08l0 -132.16c0,-39.51 4.24,-69.44 12.52,-89.6 8.28,-20.16 25.9,-38.08 53.08,-53.76 26.96,-15.68 59.86,-23.62 98.71,-23.62 38.42,0 71.33,7.74 98.72,23.42 27.38,15.68 45.43,35.43 54.56,59.25 8.91,23.83 13.37,57.63 13.37,101.42zm378.09 -12.22l0 114.04c0,41.74 -2.12,72.49 -6.58,92.04 -4.46,19.55 -13.8,37.67 -28.02,54.57 -14.44,16.91 -32.91,29.53 -55.41,37.47 -22.72,8.15 -48.62,12.22 -77.7,12.22 -32.69,0 -60.29,-3.46 -83,-10.38 -22.72,-6.72 -40.34,-17.11 -52.87,-31.16 -12.52,-13.85 -21.65,-30.75 -26.96,-50.5 -5.3,-19.76 -8.06,-49.28 -8.06,-88.79l0 -119.33c0,-43.37 4.88,-77.18 14.65,-101.41 9.76,-24.23 27.38,-43.78 52.64,-58.65 25.26,-14.66 57.75,-21.99 97.23,-21.99 33.33,0 61.78,4.68 85.56,14.05 23.77,9.57 42.03,21.79 54.98,37.06 12.95,15.27 21.65,30.95 26.54,47.04 4.67,16.09 7,40.73 7,73.72zm-147.54 -35.03c0,-23.82 -1.27,-38.89 -4.04,-45.21 -2.76,-6.1 -8.49,-9.16 -17.19,-9.16 -8.7,0 -14.65,3.06 -17.62,9.16 -2.97,6.32 -4.46,21.39 -4.46,45.21l0 209.95c0,21.99 1.49,36.25 4.46,42.97 2.97,6.72 8.7,10.18 17.2,10.18 8.7,0 14.64,-3.05 17.4,-9.16 2.76,-6.11 4.25,-19.14 4.25,-39.3l0 -214.64zm342.21 -128.49l-2.54 44.19c11.46,-17.52 25.05,-30.75 40.97,-39.51 15.92,-8.76 33.96,-13.03 54.13,-13.03 39.49,0 70.48,17.51 93.2,52.54 12.52,-17.52 26.53,-30.75 42.24,-39.51 15.5,-8.76 32.91,-13.03 51.8,-13.03 25.05,0 45.86,5.9 62.42,17.51 16.34,11.61 26.96,26.07 31.63,42.97 4.46,16.9 6.79,44.6 6.79,82.67l0 330.71 -143.29 0 0 -303.42c0,-39.71 -1.28,-64.35 -4.04,-73.92 -2.76,-9.36 -9.34,-14.05 -19.74,-14.05 -10.4,0 -17.2,4.69 -20.17,13.85 -3.18,9.37 -4.67,34.01 -4.67,74.12l0 303.42 -143.3 0 0 -295.68c0,-45.61 -1.06,-72.9 -3.39,-82.06 -2.34,-9.17 -8.92,-13.65 -19.32,-13.65 -6.58,0 -12.1,2.44 -16.77,7.13 -4.67,4.68 -7.22,10.59 -7.65,17.51 -0.63,6.93 -0.84,21.59 -0.84,43.99l0 322.76 -143.3 0 0 -465.51 145.84 0z"/>
   <path class="fil2" d="M8050.02 9632.6c0,58.33 -47.29,105.62 -105.62,105.62 -58.34,0 -105.63,-47.29 -105.63,-105.62 0,-58.34 47.29,-105.63 105.63,-105.63 58.33,0 105.62,47.29 105.62,105.63z"/>
  </g>
 </g>
</svg>
